<?xml version="1.0" standalone="no"?><!DOCTYPE svg PUBLIC "-//W3C//DTD SVG 1.1//EN" "http://www.w3.org/Graphics/SVG/1.1/DTD/svg11.dtd"><svg t="1664942448130" class="icon" viewBox="0 0 1024 1024" version="1.1" xmlns="http://www.w3.org/2000/svg" p-id="1685" xmlns:xlink="http://www.w3.org/1999/xlink" width="200" height="200"><path d="M134.864 614.864a34.272 34.272 0 0 1-34.272-34.272V409.136a34.272 34.272 0 0 1 68.544 0v171.456a34.272 34.272 0 0 1-34.272 34.272z m0 0" p-id="1686"></path><path d="M889.136 957.728H203.408a102.576 102.576 0 0 1-102.816-102.144v-69.312a34.272 34.272 0 0 1 68.544 0v69.312a33.984 33.984 0 0 0 34.272 33.6h685.728a34.272 34.272 0 0 0 34.272-34.272V169.136a34.272 34.272 0 0 0-34.272-34.272H203.408c-19.872 0-34.272 10.848-34.272 18.24v50.304a34.272 34.272 0 1 1-68.544 0V153.104c0-48 46.128-86.832 102.816-86.832h685.728A103.008 103.008 0 0 1 992 169.136v685.728a103.008 103.008 0 0 1-102.864 102.864z m0 0" p-id="1687"></path><path d="M169.136 340.592H66.272a34.32 34.32 0 0 1 0-68.592h102.864a34.32 34.32 0 0 1 0 68.592z m0 377.136H66.272a34.32 34.32 0 0 1 0-68.592h102.864a34.32 34.32 0 0 1 0 68.592zM803.504 795.776a26.352 26.352 0 1 1-52.8 0v-2.496c0-1.056 0-2.064 0.288-3.072-16.464-116.832-115.584-202.704-236.304-204.048h-5.712c-119.328 1.344-217.488 85.296-235.632 200.112a26.064 26.064 0 0 1 1.056 7.008l0.24 2.496a26.784 26.784 0 1 1-53.52 0v-0.24h-0.528c0-0.768 0-1.536 0.336-2.304a28.08 28.08 0 0 1 0.816-6.432 287.136 287.136 0 0 1 182.4-232.272A207.552 207.552 0 0 1 310.4 379.184c0-114.432 88.128-207.168 201.6-207.168s201.216 92.736 201.216 207.168a207.504 207.504 0 0 1-93.456 175.296 287.04 287.04 0 0 1 182.112 229.92 26.064 26.064 0 0 1 1.68 8.88v2.496z m-136.8-416.544A155.04 155.04 0 1 0 511.664 536a155.856 155.856 0 0 0 155.04-156.624z" p-id="1688"></path></svg>