<?xml version="1.0" standalone="no"?>
<!DOCTYPE svg PUBLIC "-//W3C//DTD SVG 1.1//EN" "http://www.w3.org/Graphics/SVG/1.1/DTD/svg11.dtd">
<svg t="1664798208907" class="icon" viewBox="0 0 1024 1024" version="1.1" xmlns="http://www.w3.org/2000/svg" p-id="1057" xmlns:xlink="http://www.w3.org/1999/xlink" width="200" height="200">
<path d="M621.22666667 628.50844445c-43.69066667 58.25422222-174.76266667 58.25422222-211.17155556 0C395.49155555 613.94488889 366.36444445 613.94488889 359.08266667 621.22666667 344.51911111 628.50844445 344.51911111 657.63555555 351.80088889 672.19911111c29.12711111 36.40888889 94.66311111 72.81777778 160.19911111 72.81777778 65.536 0 116.50844445-21.84533333 160.19911111-72.81777778 7.28177778-14.56355555 7.28177778-29.12711111-7.28177778-43.69066666C657.63555555 613.94488889 628.50844445 613.94488889 621.22666667 628.50844445z" p-id="1058"></path>
<path d="M927.06133333 395.49155555C876.08888889 213.44711111 708.608 82.37511111 512 82.37511111S147.91111111 213.44711111 96.93866667 395.49155555C45.96622222 410.05511111 2.27555555 453.74577778 2.27555555 512s43.69066667 101.94488889 94.66311112 116.50844445c50.97244445 182.04444445 218.45333333 320.39822222 415.06133333 320.39822222s364.08888889-131.072 415.06133333-320.39822222C978.03377778 613.94488889 1021.72444445 570.25422222 1021.72444445 512S978.03377778 410.05511111 927.06133333 395.49155555zM912.49777778 555.69066667l-43.69066667-7.28177778L861.52533333 584.81777778c-36.40888889 167.48088889-182.04444445 291.27111111-349.52533333 291.27111111s-320.39822222-123.79022222-349.52533333-291.27111111L155.19288889 548.40888889l-36.40888889 0c0 0-7.28177778 0-7.28177778 0C96.93866667 555.69066667 75.09333333 533.84533333 75.09333333 512c0-21.84533333 21.84533333-43.69066667 36.40888889-43.69066667l43.69066667 7.28177778L162.47466667 439.18222222c21.84533333-109.22666667 87.38133333-196.608 182.04444444-240.29866667C366.36444445 264.41955555 417.33688889 373.64622222 548.40888889 373.64622222c14.56355555 0 36.40888889-14.56355555 36.40888889-29.12711111 0 0 7.28177778-50.97244445 65.536-72.81777778 21.84533333-7.28177778 29.12711111-29.12711111 21.84533333-43.69066666C657.63555555 206.16533333 643.072 198.88355555 621.22666667 206.16533333 562.97244445 228.01066667 533.84533333 271.70133333 519.28177778 300.82844445 453.74577778 286.26488889 424.61866667 213.44711111 410.05511111 169.75644445 439.18222222 162.47466667 475.59111111 155.19288889 512 155.19288889c167.48088889 0 320.39822222 123.79022222 349.52533333 291.27111111l7.28177778 29.12711111 43.69066667-7.28177778C934.34311111 468.30933333 948.90666667 490.15466667 948.90666667 512 948.90666667 533.84533333 927.06133333 555.69066667 912.49777778 555.69066667z" p-id="1059"></path><path d="M359.08266667 475.59111111m-43.69066667 0a0.68266667 0.68266667 0 1 0 87.38133333 0 0.68266667 0.68266667 0 1 0-87.38133333 0Z" p-id="1060"></path><path d="M664.91733333 475.59111111m-43.69066666 0a0.68266667 0.68266667 0 1 0 87.38133333 0 0.68266667 0.68266667 0 1 0-87.38133333 0Z" p-id="1061"></path>
</svg>