<?xml version="1.0" standalone="no"?><!DOCTYPE svg PUBLIC "-//W3C//DTD SVG 1.1//EN" "http://www.w3.org/Graphics/SVG/1.1/DTD/svg11.dtd"><svg t="1664800144641" class="icon" viewBox="0 0 1024 1024" version="1.1" xmlns="http://www.w3.org/2000/svg" p-id="1087" xmlns:xlink="http://www.w3.org/1999/xlink" width="200" height="200"><path d="M719.13026597 429.15783566l124.27567408-414.26053196h-248.55134815A82.87944704 82.87944704 0 0 1 512 97.75189561 82.82973677 82.82973677 0 0 1 429.1454081 14.8973037h-248.55134815l124.27567408 414.26053196L97.75189561 1009.1026963h828.49620878L719.13026597 429.15783566zM291.93263635 97.75189561h77.34917954c28.73253584 49.31258747 81.5621249 82.8545919 142.71818411 82.85459191 61.08149381 0 113.99807583-33.54200443 142.71818411-82.85459191h77.27461413L645.01225396 387.72432592H378.90075307l-86.96811672-289.97243031z m376.54286488 828.50863635L636.27567408 636.27567408h-82.85459191l32.21225472 289.98485788H438.32938041L470.57891783 636.27567408H387.72432592l-32.24953742 289.98485788H215.30425571l162.71414008-455.68161413h267.88864303l162.80113303 455.68161413H668.47550123z" p-id="1088"></path></svg>