<?xml version="1.0" standalone="no"?><!DOCTYPE svg PUBLIC "-//W3C//DTD SVG 1.1//EN" "http://www.w3.org/Graphics/SVG/1.1/DTD/svg11.dtd"><svg t="1665098299002" class="icon" viewBox="0 0 1024 1024" version="1.1" xmlns="http://www.w3.org/2000/svg" p-id="2038" xmlns:xlink="http://www.w3.org/1999/xlink" width="200" height="200"><path d="M512 96.00000031L32 320l127.99999969 57.6v108.79999969c-38.4 12.79999969-64.00000031 51.19999969-63.99999938 89.60000062s25.60000031 76.8 63.99999938 89.59999969v6.40000031l-57.6 134.4C83.19999969 864.00000031 96.00000031 927.99999969 192.00000031 927.99999969s108.79999969-64.00000031 89.59999969-121.59999938L224 672.00000031c38.4-19.2 64.00000031-51.19999969 64.00000031-96s-25.60000031-76.8-64.00000031-89.60000062V409.59999969L512 543.99999969 992 320 512 96.00000031z m281.59999969 415.99999969l-288 127.99999969L351.99999969 569.6v6.40000031c0 44.80000031-19.2 83.20000031-51.19999969 115.2l38.4 89.59999969v6.40000031c6.40000031 25.60000031 12.79999969 51.19999969 6.40000031 76.8 44.80000031 19.2 96 31.99999969 159.99999938 31.99999969 211.2 0 288-127.99999969 288-192v-192z" fill="" p-id="2039"></path></svg>