<?xml version="1.0" standalone="no"?><!DOCTYPE svg PUBLIC "-//W3C//DTD SVG 1.1//EN" "http://www.w3.org/Graphics/SVG/1.1/DTD/svg11.dtd"><svg t="1664869878583" class="icon" viewBox="0 0 1024 1024" version="1.1" xmlns="http://www.w3.org/2000/svg" p-id="1245" xmlns:xlink="http://www.w3.org/1999/xlink" width="200" height="200"><path d="M155.05017031 771.99999969C114.32216094 771.99999969 81.23076875 738.38185156 81.23076875 697.07902813L81.23076875 96.99999969 56.61538438 122 869.04999781 122C909.71711188 122 942.76923031 155.61245563 942.76923031 196.92097156L942.76923031 797 967.38461562 771.99999969 524.30769219 771.99999969 516.90717781 771.99999969 510.73359781 776.14476219 300.04296219 917.59631188C288.70213156 925.21021438 285.58590219 940.71971 293.08266781 952.23774031 300.57943156 963.75576969 315.85032031 966.92069 327.19115 959.30678844L537.88178562 817.85523781 524.30769219 822.00000031 967.38461562 822.00000031 992 822.00000031 992 797 992 196.92097156C992 128.01283437 936.92092812 72.00000031 869.04999781 72.00000031L56.61538438 72.00000031 32 72.00000031 32 96.99999969 32 697.07902813C32 765.99285781 87.12957594 822.00000031 155.05017031 822.00000031L283.35997156 822.00000031C296.95467406 822.00000031 307.97535594 810.80711844 307.97535594 797 307.97535594 783.19288156 296.95467406 771.99999969 283.35997156 771.99999969L155.05017031 771.99999969Z" p-id="1246"></path><path d="M376.61538406 447.00000031C376.61538406 391.77152562 332.53265187 347 278.15384563 347 223.77504031 347 179.69230719 391.77152562 179.69230719 447.00000031 179.69230719 502.22847406 223.77504031 546.99999969 278.15384563 546.99999969 332.53265187 546.99999969 376.61538406 502.22847406 376.61538406 447.00000031ZM228.92307687 447.00000031C228.92307687 419.38576156 250.96444437 396.99999969 278.15384563 396.99999969 305.34324969 396.99999969 327.38461625 419.38576156 327.38461625 447.00000031 327.38461625 474.61423812 305.34324969 497 278.15384563 497 250.96444437 497 228.92307687 474.61423812 228.92307687 447.00000031Z" p-id="1247"></path><path d="M622.76922969 447.00000031C622.76922969 391.77152562 578.68649844 347 524.30769219 347 469.92888594 347 425.84615375 391.77152562 425.84615375 447.00000031 425.84615375 502.22847406 469.92888594 546.99999969 524.30769219 546.99999969 578.68649844 546.99999969 622.76922969 502.22847406 622.76922969 447.00000031ZM475.07692438 447.00000031C475.07692438 419.38576156 497.11829 396.99999969 524.30769219 396.99999969 551.49709625 396.99999969 573.53846187 419.38576156 573.53846187 447.00000031 573.53846187 474.61423812 551.49709625 497 524.30769219 497 497.11829 497 475.07692438 474.61423812 475.07692438 447.00000031Z" p-id="1248"></path><path d="M868.92307625 447.00000031C868.92307625 391.77152562 824.84034406 347 770.46153781 347 716.08273156 347 672.00000031 391.77152562 672.00000031 447.00000031 672.00000031 502.22847406 716.08273156 546.99999969 770.46153781 546.99999969 824.84034406 546.99999969 868.92307625 502.22847406 868.92307625 447.00000031ZM721.23077 447.00000031C721.23077 419.38576156 743.27213563 396.99999969 770.46153781 396.99999969 797.65094188 396.99999969 819.69230844 419.38576156 819.69230844 447.00000031 819.69230844 474.61423812 797.65094188 497 770.46153781 497 743.27213563 497 721.23077 474.61423812 721.23077 447.00000031Z" p-id="1249"></path></svg>