<?xml version="1.0" standalone="no"?><!DOCTYPE svg PUBLIC "-//W3C//DTD SVG 1.1//EN" "http://www.w3.org/Graphics/SVG/1.1/DTD/svg11.dtd"><svg t="1664938306730" class="icon" viewBox="0 0 1024 1024" version="1.1" xmlns="http://www.w3.org/2000/svg" p-id="1367" xmlns:xlink="http://www.w3.org/1999/xlink" width="200" height="200"><path d="M196.60193223 154.07635001L196.45629667 257.13777778v509.91862556a157.77185223 157.77185223 0 0 0 157.7718511 157.77185109h418.26531556a109.27521223 109.27521223 0 0 1-103.01288221 72.81777778H354.22814777A230.58963001 230.58963001 0 0 1 123.6385189 767.05640334V257.13777778c0-47.5742811 30.43783111-88.10951111 72.96341333-103.06142777zM791.13481443 26.54814777A109.22666667 109.22666667 0 0 1 900.3614811 135.77481443v631.08740779a109.22666667 109.22666667 0 0 1-109.22666667 109.22666667h-436.90666666a109.22666667 109.22666667 0 0 1-109.22666667-109.22666667v-631.08740779A109.22666667 109.22666667 0 0 1 354.22814777 26.54814777h436.90666666z m0 72.81777778h-436.90666666a36.40888889 36.40888889 0 0 0-36.40888889 36.40888888v631.08740779c0 20.09770667 16.31118222 36.40888889 36.40888889 36.40888889h436.90666666a36.40888889 36.40888889 0 0 0 36.4088889-36.40888889v-631.08740779a36.40888889 36.40888889 0 0 0-36.4088889-36.40888888z" p-id="1368"></path></svg>