<?xml version="1.0" standalone="no"?><!DOCTYPE svg PUBLIC "-//W3C//DTD SVG 1.1//EN" "http://www.w3.org/Graphics/SVG/1.1/DTD/svg11.dtd"><svg t="1664798130127" class="icon" viewBox="0 0 1024 1024" version="1.1" xmlns="http://www.w3.org/2000/svg" p-id="1985" xmlns:xlink="http://www.w3.org/1999/xlink" width="200" height="200"><path d="M968.929974 446.066263H692.5019l100.773352-145.940081c24.46264-35.439131 15.539938-84.181589-19.899193-108.663224a77.754299 77.754299 0 0 0-44.340465-13.830426 78.162683 78.162683 0 0 0-64.33938 33.727245l-152.699775 221.170476-152.697402-221.168102c-24.465015-35.448629-73.221719-44.371331-108.696465-19.887321a78.205421 78.205421 0 0 0-33.717747 64.332256 77.709187 77.709187 0 0 0 13.835174 44.321471l100.773352 145.937706H55.070026C24.704821 446.066263 0 470.76871 0 501.133915v228.559366c0 30.365205 24.704821 55.070026 55.070026 55.070026h0.683805v43.79912a17.807416 17.807416 0 0 0 17.807416 17.807415h876.877506a17.807416 17.807416 0 0 0 17.807416-17.807415v-43.79912h0.686179c30.365205 0 55.070026-24.704821 55.070026-55.070026v-228.559366c-0.002374-30.365205-24.707196-55.067652-55.0724-55.067652z m-274.925128-214.472513a42.5526 42.5526 0 0 1 35.030748-18.346387c8.635409 0 16.974029 2.604631 24.108866 7.524227 19.277121 13.315198 24.13261 39.83875 10.824535 59.118245l-114.746238 166.174054h-103.292507l148.074596-214.470139z m-433.971466 48.303208a42.262933 42.262933 0 0 1-7.53135-24.092246c0-13.99188 6.861791-27.091015 18.346387-35.030748a42.270056 42.270056 0 0 1 31.823039-6.838048 42.196452 42.196452 0 0 1 27.321324 17.657834l148.074596 214.472513h-103.290133l-114.743863-166.169305z m672.597958 530.858053H91.368662v-25.991704h841.262676v25.991704z m55.753831-81.06173c0 10.727187-8.728008 19.455195-19.455195 19.455195H55.070026c-10.727187 0-19.455195-8.728008-19.455195-19.455195v-228.559366c0-10.727187 8.728008-19.455195 19.455195-19.455195h913.862322c10.727187 0 19.455195 8.728008 19.455195 19.455195v228.559366z" p-id="1986"></path><path d="M326.706718 597.60737H80.41354a17.807416 17.807416 0 0 0 0 35.614831H326.706718a17.807416 17.807416 0 0 0 0-35.614831zM326.706718 540.877692H80.41354a17.807416 17.807416 0 0 0 0 35.614831H326.706718a17.807416 17.807416 0 0 0 0-35.614831zM326.706718 654.337047H130.143716a17.807416 17.807416 0 0 0 0 35.614831H326.706718a17.807416 17.807416 0 0 0 0-35.614831zM96.855721 665.327784c-4.245288-10.060003-16.784083-14.065484-26.036816-8.165294-9.523406 6.071142-10.777048 19.57866-3.001143 27.587249 6.994753 6.800058 18.196804 6.800058 25.191557 0 4.945713-5.095295 6.638605-12.816591 3.846402-19.421955-0.448747-1.068445 0.451121 1.066071 0 0zM943.58646 508.570292a17.807416 17.807416 0 0 0-17.807416 17.807415v178.074156a17.807416 17.807416 0 0 0 35.614831 0v-178.074156a17.807416 17.807416 0 0 0-17.807415-17.807415z" p-id="1987"></path></svg>