<?xml version="1.0" encoding="UTF-8"?>
<svg width="24px" height="24px" viewBox="0 0 24 24" version="1.1" xmlns="http://www.w3.org/2000/svg" xmlns:xlink="http://www.w3.org/1999/xlink">
    <title>facebook</title>
    <g id="deal-tree" stroke="none" stroke-width="1" fill="none" fill-rule="evenodd">
        <g id="编组-34备份-3" transform="translate(-168.000000, -48.000000)" fill-rule="nonzero">
            <g id="facebook" transform="translate(168.000000, 48.000000)">
                <rect id="矩形" fill="#000000" opacity="0" x="0" y="0" width="24" height="24"></rect>
                <path d="M17,3.49999999 C17,3.36739175 16.9473216,3.24021479 16.8535534,3.14644661 C16.7597852,3.05267842 16.6326082,3 16.5,3 L14,3 C11.3793165,2.86945444 9.14527505,4.8800917 9,7.5 L9,10.2 L6.5,10.2 C6.22385762,10.2 6,10.4238576 6,10.7 L6,13.3 C6,13.5761424 6.22385762,13.8 6.5,13.8 L9,13.8 L9,20.5 C9,20.7761424 9.22385762,21 9.5,21 L12.5,21 C12.6326082,21 12.7597852,20.9473216 12.8535534,20.8535534 C12.9473216,20.7597852 13,20.6326083 13,20.5 L13,13.8 L15.62,13.8 C15.8487445,13.8032859 16.0505439,13.6509068 16.11,13.43 L16.83,10.83 C16.8703184,10.6802721 16.8388876,10.5203113 16.7449137,10.3969705 C16.6509398,10.2736298 16.5050589,10.200869 16.35,10.2 L13,10.2 L13,7.5 C13.051542,6.98709871 13.4845219,6.59741676 14,6.6 L16.5,6.6 C16.7761424,6.6 17,6.37614238 17,6.10000001 L17,3.49999999 Z" id="路径" fill="#3D5A9A"></path>
            </g>
        </g>
    </g>
</svg>