<?xml version="1.0" standalone="no"?><!DOCTYPE svg PUBLIC "-//W3C//DTD SVG 1.1//EN" "http://www.w3.org/Graphics/SVG/1.1/DTD/svg11.dtd"><svg t="1664942816536" class="icon" viewBox="0 0 1024 1024" version="1.1" xmlns="http://www.w3.org/2000/svg" p-id="1807" xmlns:xlink="http://www.w3.org/1999/xlink" width="200" height="200"><path d="M973.561173 5.458489H50.443378c-24.805262 0-44.98432 20.177351-44.98432 44.976924v923.126329c0 24.800142 20.179627 44.9792 44.98432 44.9792h923.117226c24.800142 0 44.979769-20.179627 44.979769-44.9792V50.435413c0.000569-24.799573-20.179058-44.976924-44.9792-44.976924zM50.443378 41.032818h923.117226c5.18656 0 9.404871 4.21888 9.404872 9.402595v110.391183H41.033956V50.435413c0-5.183716 4.218311-9.402596 9.409422-9.402595z m923.117795 941.933795H50.443378c-5.191111 0-9.409991-4.218311-9.409991-9.404871V196.400924h941.932089v777.160818c0.000569 5.18656-4.217742 9.404871-9.404303 9.404871z" p-id="1808"></path><path d="M118.004622 127.793493c15.787236 0 28.586667-12.8 28.586667-28.586666 0-15.79008-12.799431-28.586667-28.586667-28.586667s-28.586667 12.797156-28.586666 28.586667c0 15.786667 12.799431 28.586667 28.586666 28.586666zM208.211627 127.793493c15.787236 0 28.586667-12.8 28.586666-28.586666 0-15.79008-12.799431-28.586667-28.586666-28.586667s-28.586667 12.797156-28.586667 28.586667c0 15.786667 12.799431 28.586667 28.586667 28.586666zM298.418062 127.793493c15.787236 0 28.586667-12.8 28.586667-28.586666 0-15.79008-12.8-28.586667-28.586667-28.586667s-28.586667 12.797156-28.586666 28.586667c0 15.786667 12.8 28.586667 28.586666 28.586666zM661.182009 620.604871l123.37152-120.261404a17.788018 17.788018 0 0 0-9.856-30.339983l-170.497707-24.775111-76.248746-154.494293a17.78688 17.78688 0 1 0-31.901014 0L419.795627 445.228373l-170.498276 24.775111a17.787449 17.787449 0 0 0-9.857707 30.339983l123.373227 120.261404-29.12256 169.813333a17.788587 17.788587 0 1 0 25.808213 18.752285L512 728.991858l152.499769 80.178631a17.774933 17.774933 0 0 0 8.275627 2.042311 17.789156 17.789156 0 0 0 17.534293-20.794596l-29.12768-169.813333zM520.278471 693.151289a17.788587 17.788587 0 0 0-16.555235 0l-128.877227 67.759218 24.611271-143.506774a17.791431 17.791431 0 0 0-5.115449-15.745137L290.079289 500.026027l144.085902-20.937956a17.784604 17.784604 0 0 0 13.391645-9.729707L512 338.796658l64.436907 130.562275a17.790293 17.790293 0 0 0 13.392782 9.729707l144.08704 20.937956-104.261973 101.632568a17.788018 17.788018 0 0 0-5.116587 15.745138l24.616391 143.504498-128.876089-67.757511z" p-id="1809"></path><path d="M512 805.71392c-9.824142 0-17.787449 7.963307-17.787449 17.787449v60.36992c0 9.824142 7.963307 17.787449 17.787449 17.787449 9.824711 0 17.787449-7.963307 17.787449-17.787449v-60.36992c0-9.824142-7.962738-17.787449-17.787449-17.787449zM810.214969 654.285938l-57.413973-18.660694c-9.359929-3.040142-19.383182 2.077013-22.41536 11.417032-3.037298 9.342862 2.074169 19.378062 11.4176 22.41536l57.413973 18.660693a17.794276 17.794276 0 0 0 5.501724 0.876089c7.499093 0 14.471396-4.779236 16.913067-12.29312 3.037867-9.342293-2.074169-19.377493-11.417031-22.41536zM646.965476 390.319218a17.700978 17.700978 0 0 0 10.440248 3.398542c5.501156 0 10.923236-2.542364 14.404267-7.332978l35.487858-48.840818c5.774222-7.946809 4.012942-19.071431-3.935573-24.845653-7.945671-5.774222-19.068018-4.012373-24.844516 3.934436l-35.487858 48.840817c-5.774222 7.946809-4.012942 19.071431 3.935574 24.845654zM352.184889 386.383644c3.479893 4.790613 8.903111 7.334116 14.404835 7.334116 3.623822 0 7.282916-1.104213 10.43968-3.398542 7.948516-5.773084 9.709796-16.897707 3.935574-24.844516l-35.482738-48.840818c-5.773084-7.944533-16.897707-9.711502-24.844516-3.935573-7.948516 5.773084-9.709796 16.897707-3.935573 24.844516l35.482738 48.840817zM271.2064 635.625813l-57.419662 18.655574c-9.342862 3.035022-14.455467 13.070222-11.419307 22.412515 2.441671 7.516729 9.414542 12.295964 16.912498 12.295965 1.821582 0 3.673884-0.282738 5.500587-0.876089l57.419093-18.655574c9.342862-3.035022 14.456036-13.070222 11.419875-22.412515s-13.070222-14.454898-22.413084-11.419876z" p-id="1810"></path></svg>