<?xml version="1.0" standalone="no"?><!DOCTYPE svg PUBLIC "-//W3C//DTD SVG 1.1//EN" "http://www.w3.org/Graphics/SVG/1.1/DTD/svg11.dtd"><svg t="1665211093354" class="icon" viewBox="0 0 1024 1024" version="1.1" xmlns="http://www.w3.org/2000/svg" p-id="1931" xmlns:xlink="http://www.w3.org/1999/xlink" width="200" height="200"><path d="M232.71999969 512c0-30.48 5.20000031-59.71999969 14.4-87.12L85.59999969 304.08000031A461.11999969 461.11999969 0 0 0 36.39999969 512c0 74.71999969 17.68000031 145.2 49.12000031 207.76000031l161.44000031-121.00000031A272.4 272.4 0 0 1 232.71999969 512" fill="#FBBC05" p-id="1932"></path><path d="M516.39999969 234.68c67.60000031 0 128.68000031 23.44000031 176.68000031 61.84000031L832.71999969 159.99999969C747.63999969 87.48000031 638.55999969 42.68 516.39999969 42.68c-189.67999969 0-352.72000031 106.2-430.8 261.40000031l161.60000062 120.79999969c37.2-110.64 143.28-190.2 269.19999938-190.2" fill="#EA4335" p-id="1933"></path><path d="M516.39999969 789.32c-125.95999969 0-232.03999969-79.56-269.28-190.2l-161.52 120.79999969c78.04000031 155.20000031 241.08 261.40000031 430.8 261.40000031 117.04000031 0 228.79999969-40.68 312.72-116.95999969l-153.36-116.08000031c-43.24000031 26.68000031-97.72000031 41.04-159.39999938 41.04" fill="#34A853" p-id="1934"></path><path d="M974.55999969 512c0-27.72-4.39999969-57.6-10.92-85.32H516.36000031V608h257.43999938c-12.84 61.84000031-47.88 109.36000031-97.99999969 140.28l153.31999969 116.08000031c88.12000031-80.08000031 145.44-199.36000031 145.44-352.36000031" fill="#4285F4" p-id="1935"></path></svg>