<svg width="20" height="20" viewBox="0 0 32 32"  xmlns="http://www.w3.org/2000/svg">
<path d="M24.64 9.36H25.66C26.6263 9.36311 27.5577 9.72149 28.2769 10.3669C28.9961 11.0123 29.4528 11.8997 29.56 12.86L30.99 26.48C31.0465 27.025 30.9881 27.5758 30.8184 28.0967C30.6487 28.6177 30.3716 29.0973 30.005 29.5044C29.6384 29.9116 29.1904 30.2373 28.69 30.4604C28.1896 30.6836 27.6479 30.7993 27.1 30.8H4.92602C4.3775 30.7996 3.83518 30.684 3.33415 30.4607C2.83313 30.2375 2.38457 29.9115 2.0175 29.5039C1.65044 29.0963 1.37305 28.6162 1.20329 28.0946C1.03353 27.573 0.975178 27.0216 1.03202 26.476L2.46102 12.866C2.56242 11.9028 3.01719 11.0113 3.73748 10.3638C4.45777 9.71625 5.39247 9.35863 6.36102 9.36H7.30102C7.98502 5.189 11.604 2 15.967 2C20.329 2 23.956 5.196 24.641 9.36H24.64ZM24.756 12.78H24.906C25.516 12.78 26.006 13.27 26.016 13.88V15.69C26.016 16.3 25.526 16.79 24.916 16.79H23.106C22.496 16.79 22.006 16.3 22.006 15.69V13.88C22.006 13.27 22.496 12.78 23.106 12.78H23.266V11.36H8.68602V12.78H8.83602C9.44602 12.78 9.93602 13.27 9.93602 13.88V15.69C9.93602 16.3 9.44602 16.79 8.83602 16.79H7.02602C6.41602 16.79 5.92602 16.3 5.92602 15.69V13.88C5.92602 13.27 6.41602 12.78 7.02602 12.78H7.18602V11.36H6.35602C5.88223 11.3604 5.42534 11.5361 5.07341 11.8533C4.72149 12.1705 4.49942 12.6068 4.45002 13.078L3.54002 21.75H28.482L27.57 13.075C27.5166 12.6039 27.2918 12.1689 26.9386 11.8527C26.5853 11.5365 26.1281 11.3611 25.654 11.36H24.756V12.78ZM23.126 9.36C22.459 6.022 19.506 3.5 15.976 3.5C12.446 3.5 9.49302 6.022 8.82602 9.36H23.126Z" fill="black"/>
</svg>
