<svg width="20" height="20" viewBox="0 0 64 64" xmlns="http://www.w3.org/2000/svg">
<path d="M46.845 45.83C34.966 38.899 33.215 36.227 26.015 21.242L25.748 20.688C18.123 4.823 15.278 2 9.79402 2C3.79602 2 0.0110174 14.429 3.10302 22.762C6.06902 30.752 6.62802 35.95 6.62802 56.634L9.07602 57.167L13.016 56.439C13.016 56.439 12.162 44.376 14.334 38.678C15.734 41.003 17.602 44.303 20.028 48.956C26.137 60.664 32.058 62 37.943 62H59.696C60.847 61.757 62 60.977 62 57.909C62 55.178 56.876 51.682 46.845 45.83ZM9.86402 3.847C13.419 3.864 16.184 5.141 24.034 21.473L24.301 22.026C30.914 35.792 32.922 39.97 42.88 45.753C40.743 45.92 36.787 47.432 36.787 47.432C28.423 41.572 22.239 29.88 18.763 22.41C17.659 20.038 16.704 17.989 15.878 16.612C13.901 13.319 11.22 12.163 8.54902 11.83C7.60402 9.253 7.36402 6.119 8.21202 4.732C8.39502 4.432 8.76502 4.017 9.86402 3.847M11.071 46.681C10.885 49.947 10.962 53.088 11.04 54.924L9.00802 55.26L9.04202 41.786C9.25802 37.455 9.76102 33.816 10.835 33.495C10.835 33.495 11.514 34.195 13.148 36.757C12.011 38.844 11.334 42.103 11.071 46.681ZM11.839 20.569C10.744 18.049 9.78302 15.809 9.00202 13.822C11.149 14.087 12.915 15.329 14.245 17.544C15.021 18.837 15.956 20.847 17.039 23.172C20.565 30.75 25.861 42.096 34.49 48.285C25.56 50.55 21.932 43.767 11.839 20.569" fill="black"/>
</svg>
