<?xml version="1.0" standalone="no"?><!DOCTYPE svg PUBLIC "-//W3C//DTD SVG 1.1//EN" "http://www.w3.org/Graphics/SVG/1.1/DTD/svg11.dtd"><svg t="1664798135374" class="icon" viewBox="0 0 1024 1024" version="1.1" xmlns="http://www.w3.org/2000/svg" p-id="2125" xmlns:xlink="http://www.w3.org/1999/xlink" width="200" height="200"><path d="M461.4737455 17.10664903c7.91829362-0.0471327 15.90728628 2.52159945 22.52943064 7.9182936 77.20336276 62.63935843 129.85058877 125.13731874 164.98801667 189.07282644 12.96149253 23.56635005 22.7886605 45.76585179 31.76743987 70.15702408l5.13746431 14.58757068c2.30950229-5.5616586 4.64257095-11.78317502 6.99920596-18.66454925 2.45090041-7.06990501 4.8546681-14.56400433 7.54123203-23.47208465l7.58836471-25.16886182 2.94579376-9.07304479 1.7439099-4.71327001c1.6025118-3.98271316 3.20502362-7.28200217 5.5616586-10.72268926 2.82796201-4.05341221 6.15081735-7.65906378 11.26471534-10.84052103a35.75015302 35.75015302 0 0 1 36.15078096-1.10761845l5.42026052 2.9222274 11.54751152 13.03219158c173.3776373 199.748383 197.08538544 428.05918225 85.45158526 602.4501726-106.99122922 167.08542183-312.53693433 239.05705488-502.4817157 163.36193852-257.50950695-102.6078881-318.85271613-325.710524-186.64549237-651.56244609l8.34248792-20.07853023 6.26864911-14.75253514a23.56635005 23.56635005 0 0 1 36.95203688-8.74311586l12.20736933 10.36919403a299.22194654 299.22194654 0 0 1 64.57179913 76.30784143l4.85466809-4.64257096c59.19867133-58.44454811 97.8003527-162.89061152 113.70763899-314.94070202A35.34952507 35.34952507 0 0 1 461.4737455 17.10664903z m26.04081679 104.98808946l-1.885308 11.35898071c-27.28983335 157.94167803-84.06117061 264.88577452-172.67064678 319.04124693l-11.90100677 7.28200217a23.56635005 23.56635005 0 0 1-34.17120758-11.35898073l-5.18459701-12.96149252a224.186688 224.186688 0 0 0-29.45793755-52.3172971c-102.8906843 274.19448279-48.9237427 444.93268889 159.54418982 528.02763914 157.72958086 62.85145556 327.6900974 3.34642171 416.79446692-135.81287531 87.12479612-136.11923787 76.4728059-312.34840352-46.92060293-477.80774721l-4.17124397 12.08953757c-18.68811559 52.38799616-53.3070838 82.15229626-73.4091804 82.92998582-21.53964394 0.82482225-42.56082819-13.66848304-53.30708381-38.64881408a322.31696959 322.31696959 0 0 1-5.1374643-13.55065126l-10.25136227-28.96304423-4.94893351-13.19715602a419.48103083 419.48103083 0 0 0-23.37781926-50.03136113c-23.09502305-41.99523579-55.21595815-83.75480805-99.5442626-126.07997275z m6.43361356 543.20436856a23.56635005 23.56635005 0 0 1 21.91670557 14.9174996c1.5553791 3.93558046 3.29928901 6.95207326 5.18459701 9.02591205a35.32595871 35.32595871 0 0 0 56.39427565-5.89158752 21.37467949 21.37467949 0 0 0 1.48468005-3.11075819 23.56635005 23.56635005 0 0 1 21.94027189-14.96463229h35.93868384a15.03533132 15.03533132 0 0 1 14.84680053 17.50979808l-0.91908765 4.83110176a106.07214156 106.07214156 0 0 1-207.07751789 1.31971561l-0.35349523-2.1209715-0.11783175-2.19167056c0-10.67555657 8.6724168-19.32440705 19.34797338-19.32440704z m-64.71319722-188.57793307a23.56635005 23.56635005 0 0 1 23.56635004 23.56635004v70.69905015a23.56635005 23.56635005 0 0 1-23.56635004 23.56635004h-23.56635003a23.56635005 23.56635005 0 0 1-23.56635006-23.56635004v-70.69905015a23.56635005 23.56635005 0 0 1 23.56635006-23.56635004h23.56635003z m259.20628416 0a23.56635005 23.56635005 0 0 1 23.56635006 23.56635004v70.69905015a23.56635005 23.56635005 0 0 1-23.56635006 23.56635004h-23.56635003a23.56635005 23.56635005 0 0 1-23.56635004-23.56635004v-70.69905015a23.56635005 23.56635005 0 0 1 23.56635004-23.56635004h23.56635003z" p-id="2126"></path></svg>