<?xml version="1.0" standalone="no"?><!DOCTYPE svg PUBLIC "-//W3C//DTD SVG 1.1//EN" "http://www.w3.org/Graphics/SVG/1.1/DTD/svg11.dtd"><svg t="1664798140378" class="icon" viewBox="0 0 1306 1024" version="1.1" xmlns="http://www.w3.org/2000/svg" p-id="2406" xmlns:xlink="http://www.w3.org/1999/xlink" width="255.078125" height="200"><path d="M683.472878 1024h-64.05832c-21.041735-3.079278-42.223437-5.225442-63.031894-9.331146a508.547476 508.547476 0 0 1-411.083652-519.045016 14.743211 14.743211 0 0 0-8.911245-15.676326A443.975943 443.975943 0 0 1 40.043681 411.970111a194.041188 194.041188 0 0 1-33.825405-43.249863 39.564061 39.564061 0 0 1 15.163113-56.40678 154.850374 154.850374 0 0 1 39.56406-17.589211 407.397849 407.397849 0 0 1 123.497722-13.156916 22.488063 22.488063 0 0 0 23.327866-14.416621A504.488427 504.488427 0 0 1 565.760467 8.398032c19.78203-3.82577 39.937306-5.598688 59.859303-8.398032h57.526518c22.068161 3.079278 44.416257 5.085475 66.34445 9.331146a508.547476 508.547476 0 0 1 411.970111 520.304721 13.99672 13.99672 0 0 0 8.024786 13.996719c27.666849 18.009112 55.520321 35.738291 82.160744 55.240386a153.963915 153.963915 0 0 1 47.962092 53.607436 41.990159 41.990159 0 0 1-15.95626 60.652451 161.568799 161.568799 0 0 1-37.884454 16.469474 428.019683 428.019683 0 0 1-126.716968 13.250228 18.009112 18.009112 0 0 0-18.662293 11.47731 504.67505 504.67505 0 0 1-348.938217 259.265901c-22.208128 4.945508-45.302716 7.091671-67.977401 10.404228z m405.904866-513.213049c-3.079278-26.407144-4.665573-53.094223-9.331147-79.314744A433.058502 433.058502 0 0 0 591.841021 79.314744a439.543649 439.543649 0 0 0-366.807363 363.261527 13.483506 13.483506 0 0 0 8.911244 17.075998 2137.205759 2137.205759 0 0 0 258.379443 101.709495 12.317113 12.317113 0 0 0 17.589211-6.018589 148.22526 148.22526 0 0 1 122.377984-72.736286 153.68398 153.68398 0 0 1 164.321487 150.791325c0.233279 5.365409 1.399672 8.024786 7.418262 9.331146a2007.269546 2007.269546 0 0 0 240.370329 34.058684 12.177146 12.177146 0 0 0 14.6499-9.331146 499.21633 499.21633 0 0 0 30.372881-156.809914z m-66.577729 228.613085a49.595043 49.595043 0 0 0-4.992164-1.026426 1971.344633 1971.344633 0 0 1-225.440495-33.172225c-8.30472-1.679606-10.964097 1.026426-14.416622 7.418261a155.316931 155.316931 0 0 1-292.438126-76.282121 11.897212 11.897212 0 0 0-10.217605-13.996719A2149.196282 2149.196282 0 0 1 228.112936 527.209769c-2.146164-1.026426-4.665573-1.679606-8.30472-3.079279a428.206306 428.206306 0 0 0 62.005467 214.103153 422.141061 422.141061 0 0 0 233.978495 188.442501 431.612174 431.612174 0 0 0 507.054492-187.276108zM732.554707 638.716967a91.211956 91.211956 0 0 0-91.211955-92.611627A92.704939 92.704939 0 1 0 732.554707 638.716967z m498.096592 28.833243c0.513213-1.166393 1.166393-2.286131 1.679607-3.312557l-78.195007-57.526518-19.268817 72.223073a364.194642 364.194642 0 0 0 95.924185-11.383998zM152.810585 417.708766c6.905048-25.893931 12.876982-48.615272 19.268817-72.456351a382.577 382.577 0 0 0-95.550938 11.244031l-1.53964 3.82577z" p-id="2407"></path></svg>