<?xml version="1.0" standalone="no"?><!DOCTYPE svg PUBLIC "-//W3C//DTD SVG 1.1//EN" "http://www.w3.org/Graphics/SVG/1.1/DTD/svg11.dtd"><svg t="1664942902530" class="icon" viewBox="0 0 1024 1024" version="1.1" xmlns="http://www.w3.org/2000/svg" p-id="1871" xmlns:xlink="http://www.w3.org/1999/xlink" width="200" height="200"><path d="M192 524.32L512 672l320-147.68L928 480v512H96V480z" fill="#fff" p-id="1872"></path><path d="M945.28 453.056a32.032 32.032 0 0 0-30.688-2.112l-50.592 23.36V32a32 32 0 0 0-32-32H192a32 32 0 0 0-32 32v442.304l-50.592-23.36A32.064 32.064 0 0 0 64 480v512a32 32 0 0 0 32 32h832a32 32 0 0 0 32-32V480a32 32 0 0 0-14.72-26.944zM224 64h576v439.84l-288 132.896-288-132.896V64z m672 896H128V530.016l370.592 171.04c8.512 3.904 18.304 3.904 26.816 0L896 530.016V960z" p-id="1873"></path><path d="M528 528v-16.832l28.16 28.16a15.936 15.936 0 0 0 22.624 0 16 16 0 0 0 0-22.656L528 465.92v-90.592c0.896-0.256 1.728-0.8 2.624-1.088 2.368-0.832 4.672-1.76 6.88-2.88 1.088-0.544 2.272-0.768 3.328-1.376 0.864-0.512 1.536-1.184 2.368-1.696l2.656-1.92c2.048-1.504 4.032-3.008 5.824-4.736l0.128-0.096 78.624 45.504 18.624 69.632a16 16 0 1 0 30.912-8.288l-10.368-38.656 14.624 8.448a16 16 0 0 0 16.032-27.68l-14.72-8.512 38.624-10.4a16 16 0 0 0-8.32-30.912l-69.44 18.656-78.592-45.504 0.128-0.64a57.6 57.6 0 0 0 0.672-3.552c0.256-1.408 0.48-2.784 0.64-4.16 0.096-1.216 0.128-2.432 0.16-3.648 0-0.64 0.192-1.184 0.192-1.824s-0.16-1.216-0.192-1.824c-0.032-1.216-0.064-2.432-0.192-3.648-0.128-1.376-0.352-2.752-0.608-4.16a57.664 57.664 0 0 0-0.672-3.552l-0.128-0.64 78.624-45.504 69.44 18.656a16 16 0 0 0 8.288-30.912l-38.624-10.4 14.72-8.512a16 16 0 1 0-16-27.68l-14.656 8.448 10.368-38.656a16 16 0 1 0-30.912-8.288L630.4 232.96l-78.656 45.504a57.632 57.632 0 0 0-5.92-4.8c-0.896-0.64-1.728-1.344-2.656-1.92-0.832-0.544-1.504-1.216-2.368-1.728-1.344-0.768-2.816-1.216-4.224-1.856a54.304 54.304 0 0 0-8.64-3.264V174.08l50.816-50.752a16 16 0 1 0-22.624-22.656l-28.16 28.16V112a16 16 0 1 0-32 0v16.832l-28.16-28.16a16 16 0 1 0-22.624 22.656L496 174.08v90.816c-1.6 0.416-3.136 0.96-4.704 1.504a56.672 56.672 0 0 0-3.904 1.76c-1.408 0.64-2.88 1.088-4.224 1.856-0.864 0.512-1.536 1.184-2.368 1.696l-2.656 1.92a57.6 57.6 0 0 0-5.92 4.832L393.568 232.96l-18.624-69.632a16 16 0 1 0-30.912 8.288l10.368 38.656-14.624-8.448a16 16 0 1 0-16.032 27.68l14.72 8.512-38.624 10.4a16 16 0 0 0 8.32 30.912l69.44-18.656 78.592 45.504-0.128 0.64a57.792 57.792 0 0 0-0.672 3.552c-0.256 1.408-0.48 2.784-0.64 4.16-0.096 1.216-0.128 2.432-0.16 3.648 0 0.64-0.192 1.184-0.192 1.824s0.16 1.216 0.192 1.824c0.032 1.216 0.064 2.432 0.192 3.648 0.128 1.376 0.352 2.752 0.608 4.16 0.192 1.184 0.416 2.368 0.672 3.52l0.128 0.672-78.624 45.504-69.44-18.656a16 16 0 0 0-8.288 30.912l38.624 10.4-14.72 8.512a16 16 0 1 0 16 27.68l14.656-8.448-10.368 38.656a16 16 0 1 0 30.912 8.288l18.624-69.632 78.624-45.504 0.128 0.096c1.792 1.728 3.776 3.2 5.824 4.704 0.896 0.64 1.728 1.344 2.656 1.92 0.832 0.544 1.504 1.216 2.368 1.728 1.056 0.608 2.24 0.832 3.328 1.376 2.24 1.12 4.544 2.048 6.912 2.88 0.896 0.32 1.696 0.832 2.592 1.088v90.56l-50.784 50.784a16 16 0 1 0 22.624 22.656l28.16-28.16v16.832a16 16 0 1 0 32 0z m-22.976-183.808l-1.376-0.448a26.88 26.88 0 0 1-8.96-5.44 24.16 24.16 0 0 1-4.736-6.08 25.6 25.6 0 0 1-3.168-12.224 25.472 25.472 0 0 1 1.024-6.88 25.6 25.6 0 0 1 5.312-10.016c0.896-1.024 1.984-1.856 3.04-2.72a25.504 25.504 0 0 1 4.608-3.104 25.312 25.312 0 0 1 8.8-2.368c0.832-0.096 1.6-0.512 2.432-0.512s1.6 0.416 2.432 0.512c3.04 0.288 6.016 0.992 8.8 2.368 1.664 0.832 3.168 1.92 4.608 3.104 1.056 0.864 2.144 1.696 3.04 2.72a25.696 25.696 0 0 1 5.312 10.016 25.28 25.28 0 0 1-2.144 19.104 25.44 25.44 0 0 1-13.696 11.52l-1.376 0.448c-0.96 0.256-1.984 0.416-3.008 0.608a26.624 26.624 0 0 1-7.936 0c-1.024-0.192-2.016-0.32-3.008-0.64z" p-id="1874"></path></svg>