<?xml version="1.0" standalone="no"?><!DOCTYPE svg PUBLIC "-//W3C//DTD SVG 1.1//EN" "http://www.w3.org/Graphics/SVG/1.1/DTD/svg11.dtd"><svg t="1664942254169" class="icon" viewBox="0 0 1024 1024" version="1.1" xmlns="http://www.w3.org/2000/svg" p-id="1799" xmlns:xlink="http://www.w3.org/1999/xlink" width="200" height="200"><path d="M912.00000031 831.99999969h-800.00000062C67.20000031 831.99999969 32 796.80000031 32 752v-480C32 227.19999969 67.20000031 192.00000031 111.99999969 192.00000031h800.00000062C956.79999969 192.00000031 992 227.19999969 992 272v480c0 44.80000031-35.20000031 79.99999969-79.99999969 79.99999969zM111.99999969 224C86.40000031 224 63.99999969 246.39999969 63.99999969 272v480c0 25.60000031 22.39999969 48 48 48h800.00000062c25.60000031 0 48-22.39999969 48-48v-480c0-25.60000031-22.39999969-48-48-48h-800.00000062z" fill="" p-id="1800"></path><path d="M303.99999969 416h-3.19999969c-12.79999969-3.19999969-115.2-28.8-137.59999969-89.59999969-6.40000031-22.39999969-3.19999969-48 19.2-73.60000031 19.2-22.39999969 38.4-31.99999969 57.6-25.60000031 54.40000031 16.00000031 76.8 147.19999969 79.99999969 172.8 0 6.40000031 0 9.6-6.40000031 12.80000062-3.19999969 3.19999969-6.40000031 3.19999969-9.6 3.19999969zM227.19999969 255.99999969c-6.40000031 0-16.00000031 9.6-19.2 16.00000031-16.00000031 16.00000031-19.2 31.99999969-12.79999969 44.80000031 9.6 28.8 57.6 51.19999969 89.59999969 60.79999969C272 320 249.60000031 262.4 227.19999969 255.99999969c3.19999969 0 3.19999969 0 0 0z" fill="" p-id="1801"></path><path d="M303.99999969 831.99999969c-9.6 0-16.00000031-6.40000031-15.99999938-15.99999938v-608.00000062c0-9.6 6.40000031-16.00000031 15.99999938-15.99999938s16.00000031 6.40000031 16.00000031 15.99999938v608.00000062c0 9.6-6.40000031 16.00000031-16.00000031 15.99999938z" fill="" p-id="1802"></path><path d="M975.99999969 416H48.00000031c-9.6 0-16.00000031-6.40000031-16.00000031-16.00000031s6.40000031-16.00000031 16.00000031-15.99999938h927.99999938c9.6 0 16.00000031 6.40000031 16.00000031 15.99999938s-6.40000031 16.00000031-16.00000031 16.00000031z" fill="" p-id="1803"></path><path d="M207.99999969 543.99999969c-9.6 0-16.00000031-6.40000031-15.99999938-15.99999938 0-67.2 92.80000031-134.4 102.39999938-140.80000031 6.40000031-6.40000031 16.00000031-3.19999969 22.40000062 3.19999969 6.40000031 6.40000031 3.19999969 16.00000031-3.20000062 22.40000062-25.60000031 16.00000031-89.59999969 70.39999969-89.59999969 115.2 0 9.6-6.40000031 16.00000031-16.00000031 15.99999938z" fill="" p-id="1804"></path><path d="M399.99999969 543.99999969c-9.6 0-16.00000031-6.40000031-15.99999938-15.99999938 0-44.80000031-64.00000031-99.19999969-89.60000062-115.2-6.40000031-6.40000031-9.6-16.00000031-3.19999969-22.40000062s16.00000031-9.6 22.39999969-3.19999969c9.6 6.40000031 102.40000031 73.60000031 102.40000031 140.80000031 0 9.6-6.40000031 16.00000031-16.00000031 15.99999938zM752 768.00000031c-60.79999969 0-108.79999969-28.8-112.00000031-67.2 0-9.6 6.40000031-16.00000031 12.80000062-19.2 9.6 0 16.00000031 6.40000031 19.2 12.79999969 3.19999969 19.2 35.20000031 38.4 79.99999969 38.4 48 0 79.99999969-22.39999969 79.99999969-41.59999969 0-19.2-25.60000031-31.99999969-76.8-38.4h-9.6c-25.60000031 0-105.6-12.79999969-105.6-67.2 0-41.59999969 48-73.60000031 112.00000031-73.60000031 60.79999969 0 108.79999969 28.8 112.00000031 67.2 0 9.6-6.40000031 16.00000031-12.80000062 19.2-9.6 0-16.00000031-6.40000031-19.2-12.79999969-3.19999969-19.2-35.20000031-38.4-79.99999969-38.4-48-3.19999969-79.99999969 19.2-79.99999969 38.4s25.60000031 31.99999969 76.8 38.4h9.6c25.60000031 3.19999969 105.6 16.00000031 105.6 70.39999969 0 41.59999969-48 73.60000031-112.00000031 73.60000031z" fill="" p-id="1805"></path><path d="M303.99999969 416c-3.19999969 0-6.40000031 0-9.6-3.19999969-6.40000031-3.19999969-6.40000031-9.6-6.39999938-16.00000031 3.19999969-25.60000031 25.60000031-156.79999969 79.99999969-172.8 19.2-6.40000031 38.4 3.19999969 57.6 25.60000031 19.2 25.60000031 25.60000031 51.19999969 19.2 73.59999938-22.39999969 64.00000031-124.8 89.59999969-137.59999969 92.80000031h-3.20000062z m76.8-160.00000031c-3.19999969 0-3.19999969 0 0 0-22.39999969 6.40000031-44.80000031 64.00000031-54.39999938 121.60000031 31.99999969-9.6 79.99999969-31.99999969 89.59999969-60.79999969 3.19999969-12.79999969 0-28.8-12.79999969-44.80000031-6.40000031-6.40000031-16.00000031-16.00000031-22.40000062-16.00000031zM752 800c-9.6 0-16.00000031-6.40000031-16.00000031-16.00000031v-288c0-9.6 6.40000031-16.00000031 16.00000031-15.99999938s16.00000031 6.40000031 16.00000031 15.99999938v288c0 9.6-6.40000031 16.00000031-16.00000031 16.00000031z" fill="" p-id="1806"></path></svg>