<?xml version="1.0" standalone="no"?><!DOCTYPE svg PUBLIC "-//W3C//DTD SVG 1.1//EN" "http://www.w3.org/Graphics/SVG/1.1/DTD/svg11.dtd"><svg t="1664869881509" class="icon" viewBox="0 0 1024 1024" version="1.1" xmlns="http://www.w3.org/2000/svg" p-id="1390" xmlns:xlink="http://www.w3.org/1999/xlink" width="200" height="200"><path d="M899.55525547 555.0214304c-18.54067093 0-33.57535893 15.02268053-33.6877856 33.570992l0 0.16591253c0 0 0 0 0 0.05021014l0 235.57109013c0 19.0897088-15.40362347 34.51625493-34.4158336 34.51625493L150.28445333 858.89588907c-19.0034784 0-34.39072853-15.421088-34.39072853-34.51625494L115.8937248 237.49415573c0-19.08752533 15.40253227-34.5424512 34.39072853-34.5424512l318.9047808 0c18.6083456-0.03711147 33.63757547-15.1231008 33.63757547-33.7631008 0-18.64873173-15.04451093-33.7620096-33.63757547-33.7620096L145.751344 135.42659307c-53.7183904 0-97.25720427 43.653424-97.25720427 97.48205866l0 596.0040928c0 53.8362752 43.54208853 97.5093472 97.25720427 97.5093472l690.2323104 0c53.71511573 0 97.25938773-43.67307093 97.25938773-97.5093472L933.24304107 588.6339008C933.16772587 570.05284267 918.10138453 555.0214304 899.55525547 555.0214304z" p-id="1391"></path><path d="M965.34811413 324.079504l-220.2919008-220.9675552-8.53901226-7.03270613c-4.86056853-2.53998293-10.8639648-3.51253227-16.53117014-3.51253227-19.2807264 0-34.91466133 15.6775968-34.91466133 34.98997653 0 5.6890368 3.31278293 14.554416 5.86477227 19.42808214l151.04217813 152.49827413L686.67372907 299.4830432c-236.29258987 29.36206613-322.71857493 153.78845867-344.4956224 442.73738347-0.0305632 20.11901867 15.60883093 35.81735467 34.8840992 35.81735466 15.35232213 0 29.27256107-13.5185568 33.9333792-27.3547488 21.7857792-259.71784213 83.01605653-359.6591104 276.89410453-381.23640853l154.09845227 0.05675947L695.59477653 516.3191712l-6.3210304 8.00743893c-2.4155488 4.77324587-3.34989547 10.7799168-3.34989546 16.28776 0 19.28727573 15.633936 34.98997653 34.88955626 34.98997654 4.8867648 0 13.53165547-2.72226773 17.86283307-4.66518507l226.66969067-226.022416 9.70803733-9.7440576L965.34811413 324.079504z" p-id="1392"></path></svg>