<?xml version="1.0" standalone="no"?><!DOCTYPE svg PUBLIC "-//W3C//DTD SVG 1.1//EN" "http://www.w3.org/Graphics/SVG/1.1/DTD/svg11.dtd"><svg t="1664936843401" class="icon" viewBox="0 0 1024 1024" version="1.1" xmlns="http://www.w3.org/2000/svg" p-id="1337" xmlns:xlink="http://www.w3.org/1999/xlink" width="200" height="200"><path d="M803.27111111 696.4717037c-34.58844445 0-66.5069037 12.1362963-91.50767408 32.40391112L460.29937778 546.95253333c2.06317037-11.28675555 3.15543703-23.05896297 3.15543704-34.95253333s-1.09226667-23.54441482-3.15543704-34.95253333l251.46405925-181.92308149C736.76420741 315.392 768.68266667 327.5282963 803.27111111 327.5282963c80.34228148 0 145.63555555-65.29327408 145.63555556-145.63555555s-65.29327408-145.63555555-145.63555556-145.63555557-145.63555555 65.29327408-145.63555556 145.63555557c0 14.0781037 1.94180741 27.54939259 5.70405927 40.41386666L424.4973037 395.24882963C389.05931852 348.28136297 332.7469037 317.81925925 269.27407408 317.81925925c-107.28485925 0-194.18074075 86.89588148-194.18074075 194.18074075s86.89588148 194.18074075 194.18074075 194.18074075c63.47282963 0 119.78524445-30.4621037 155.22322962-77.42957038l238.84231112 172.94222222c-3.76225185 12.86447408-5.70405925 26.45712592-5.70405927 40.41386666 0 80.34228148 65.29327408 145.63555555 145.63555556 145.63555557s145.63555555-65.29327408 145.63555556-145.63555557-65.29327408-145.63555555-145.63555556-145.63555555z m0-577.6877037c34.83117037 0 63.10874075 28.27757037 63.10874074 63.10874075s-28.27757037 63.10874075-63.10874074 63.10874073-63.10874075-28.27757037-63.10874074-63.10874073 28.27757037-63.10874075 63.10874074-63.10874075zM269.27407408 618.79940741c-58.86103703 0-106.79940741-47.93837037-106.79940741-106.79940741s47.93837037-106.79940741 106.79940741-106.79940741 106.79940741 47.93837037 106.7994074 106.79940741-47.93837037 106.79940741-106.7994074 106.79940741z m533.99703703 286.41659259c-34.83117037 0-63.10874075-28.27757037-63.10874074-63.10874075s28.27757037-63.10874075 63.10874074-63.10874073 63.10874075 28.27757037 63.10874074 63.10874073-28.27757037 63.10874075-63.10874074 63.10874075z" p-id="1338"></path></svg>