<?xml version="1.0" standalone="no"?><!DOCTYPE svg PUBLIC "-//W3C//DTD SVG 1.1//EN" "http://www.w3.org/Graphics/SVG/1.1/DTD/svg11.dtd"><svg t="1664935082701" class="icon" viewBox="0 0 1024 1024" version="1.1" xmlns="http://www.w3.org/2000/svg" p-id="1277" xmlns:xlink="http://www.w3.org/1999/xlink" width="200" height="200"><path d="M328.704 430.96746667c-1.00693333-12.15146667 4.53973333-23.92746667 14.55786667-30.8736 5.81973333-4.02773333 12.61226667-6.0928 19.47306666-6.0928 4.94933333 0 9.91573333 1.0752 14.55786667 3.25973333l90.28266667 42.56426667 49.78346666-205.55093334L6.8608 384.34133333l345.36106667 329.07946667L328.704 430.96746667zM196.26666667 426.66666667c-14.1312 0-25.6-11.4688-25.6-25.6s11.4688-25.6 25.6-25.6 25.6 11.4688 25.6 25.6S210.39786667 426.66666667 196.26666667 426.66666667zM273.06666667 512c-18.85866667 0-34.13333333-15.27466667-34.13333334-34.13333333 0-18.85866667 15.27466667-34.13333333 34.13333334-34.13333334s34.13333333 15.27466667 34.13333333 34.13333334C307.2 496.72533333 291.92533333 512 273.06666667 512z" p-id="1278"></path><path d="M696.6272 120.35413333l-163.2768 350.48106667 226.06506667 106.56426667 242.55146666-21.31626667L696.6272 120.35413333zM759.46666667 443.73333333c-14.1312 0-25.6-11.4688-25.6-25.6s11.4688-25.6 25.6-25.6 25.6 11.4688 25.6 25.6S773.59786667 443.73333333 759.46666667 443.73333333zM853.33333333 494.93333333c-18.85866667 0-34.13333333-15.27466667-34.13333333-34.13333333 0-18.85866667 15.27466667-34.13333333 34.13333333-34.13333333s34.13333333 15.27466667 34.13333334 34.13333333C887.46666667 479.65866667 872.192 494.93333333 853.33333333 494.93333333z" p-id="1279"></path><path d="M707.25973333 590.55786667l-15.3088-7.2192-173.0048-81.5616-7.71413333-3.6352-7.7312-3.6352-28.39893333-13.39733334-7.8848-3.72053333-7.8848-3.72053333-96.63146667-45.55093334 26.70933333 320.75093334 0.88746667 10.71786666 0.7168 8.66986667 15.83786667 190.12266667L843.99786667 655.01866667l-121.41226667-57.2416L707.25973333 590.55786667zM597.33333333 768c-18.85866667 0-34.13333333-15.27466667-34.13333333-34.13333333 0-18.85866667 15.27466667-34.13333333 34.13333333-34.13333334s34.13333333 15.27466667 34.13333334 34.13333334C631.46666667 752.72533333 616.192 768 597.33333333 768zM640 665.6c-14.1312 0-25.6-11.4688-25.6-25.6s11.4688-25.6 25.6-25.6 25.6 11.4688 25.6 25.6S654.1312 665.6 640 665.6z" p-id="1280"></path></svg>